<svg width="512" height="512" viewBox="0 0 512 512" xmlns="http://www.w3.org/2000/svg">
  <!-- Background -->
  <rect width="512" height="512" fill="#041B38"/>
  <!-- EDGE logo, centred and scaled to 80 % of width, paths recoloured white -->
  <!-- Original logo: 332x204. Scale=1.234, tx=51, ty=130 -->
  <g transform="translate(51,130) scale(1.234)">
    <path d="M242.08 127.43C254.72 121.63 260.19 109.82 261.97 99.11H262.05C262.1 98.73 262.1 98.31 262.14 97.93C262.49 95.44 262.72 93.01 262.72 90.77C262.72 87.65 262.4 84.64 261.88 81.69C258.94 62.94 247.06 49.67 231.06 44.04C225.45 41.61 219.32 40.94 213.29 40.94H213.2C213.2 40.94 213.13 40.94 213.11 40.94C211.9 40.94 210.69 41.03 209.47 41.08V41.28C183.9 43.02 163.69 61.54 163.69 90.76C163.69 121.45 182.74 140.18 213.31 140.18C225.42 140.18 238.12 146.36 238.12 159.91C238.12 173.46 227.21 181.03 213.31 181.03C199.41 181.03 187.71 172.66 187.71 159.91H163.69C163.69 186.41 184.93 203.75 213.31 203.75C241.69 203.75 262.33 187.01 262.33 159.91C262.33 147.35 258.36 135.59 242.09 127.43M213.3 118.06C199.21 118.06 187.7 107.89 187.7 90.76C187.7 73.63 199.16 63.12 213.2 63.07C216.57 63.07 219.79 63.72 222.75 64.89C222.84 64.93 222.96 64.95 223.06 64.99C223.7 65.25 224.26 65.64 224.86 65.95C233.01 70.18 238.71 78.91 238.71 90.76C238.71 93.75 238.24 96.44 237.58 98.99C234.46 110.94 224.75 118.06 213.3 118.06Z" fill="white"/>
    <path d="M187.7 156.12H163.68V158.34H187.7V156.12Z" fill="white"/>
    <path d="M187.7 152.67H163.68V154.89H187.7V152.67Z" fill="white"/>
    <path d="M187.7 149.23H163.68V151.45H187.7V149.23Z" fill="white"/>
    <path d="M187.7 145.78H163.68V148H187.7V145.78Z" fill="white"/>
    <path d="M307.56 117.56L309.11 115.98L324.56 131.37L323.01 132.95L307.56 117.56Z" fill="white"/>
    <path d="M309.97 115.12L311.53 113.54L326.98 128.92L325.42 130.5L309.97 115.12Z" fill="white"/>
    <path d="M312.39 112.66L313.95 111.09L329.4 126.47L327.84 128.05L312.39 112.66Z" fill="white"/>
    <path d="M314.81 110.21L316.37 108.63L331.82 124.02L330.26 125.6L314.81 110.21Z" fill="white"/>
    <path d="M187.7 0H163.68V2.22H187.7V0Z" fill="white"/>
    <path d="M187.7 3.46002H163.68V5.68002H187.7V3.46002Z" fill="white"/>
    <path d="M187.7 6.90002H163.68V9.12003H187.7V6.90002Z" fill="white"/>
    <path d="M187.7 10.35H163.68V12.57H187.7V10.35Z" fill="white"/>
    <path d="M187.89 13.93H163.68V15.24H187.89V13.93Z" fill="white"/>
    <path d="M82.48 116.22C81.33 117.4 80.06 118.54 78.72 119.62C77.93 120.28 77.13 120.92 76.2 121.5C75.71 121.84 75.18 122.15 74.68 122.47C68.67 125.69 60.71 127.54 54.19 127.54C37.12 127.54 26.6 118.77 25.01 106.62H101.43C105.2 66.17 84.76 45.84 52.01 45.84C19.26 45.84 0 67.36 0 97.25C0 128.74 20.05 149.55 53.79 149.66C64.01 149.69 75.04 147.09 84.35 142.09C84.5 142.09 87.95 139.97 88.95 139.29C91.1 137.78 93.12 136.15 95.06 134.41C89.65 129.51 85.38 123.37 82.49 116.22H82.48ZM52.8 67.36C66.7 67.36 76.62 73.74 78.21 86.49H25.41C28.98 73.74 39.71 67.36 52.8 67.36Z" fill="white"/>
    <path d="M163.68 144.24H187.89V138.67C170.34 130.74 160.12 113.86 160.12 90.76C160.12 69.42 170.87 52.06 187.89 43.45V13.92H163.68V57.16C157.92 46.99 141.85 41.42 131.53 41.42C114.87 41.42 100.75 47.42 91.83 59.09C97.26 65.23 100.95 73.08 102.82 82.37C106.8 71.27 116.82 64.75 128.74 64.75C144.02 64.75 157.12 76.31 157.12 93.44C157.12 110.57 144.02 122.34 128.74 122.34C118.61 122.34 109.88 117.28 105.03 109H83.77C89.79 131.39 108.55 144.24 132.13 144.24C144.03 144.24 156.14 140.25 163.68 128.5V144.24Z" fill="white"/>
    <path d="M227.26 109.49C230.5 106.69 232.91 102.81 234.14 98.09C234.83 95.4 235.15 93.07 235.15 90.76C235.15 84.68 233.47 79.34 230.4 75.22C227.64 81.8 226.12 89.21 226.12 97.26C226.12 101.55 226.52 105.62 227.25 109.49H227.26Z" fill="white"/>
    <path d="M280.32 127.54C270.22 127.54 262.43 124.45 257.41 119.43C255.09 122.54 252.36 125.24 249.23 127.43C258.44 133.54 262.64 140.96 264.49 147.97C269.26 149.05 274.39 149.67 279.92 149.67C294.8 149.67 311.67 144.48 322 133.73L306.52 118.39C300.96 124.17 289.25 127.55 280.32 127.55V127.54Z" fill="white"/>
    <path d="M278.13 45.85C267.76 45.85 258.65 48.18 251.04 52.31C256.35 57.55 260.4 63.99 262.96 71.36C267.49 68.71 272.95 67.37 278.92 67.37C292.82 67.37 302.74 73.75 304.33 86.5H266.09C266.21 87.94 266.29 89.37 266.29 90.76C266.29 92.98 266.09 95.49 265.67 98.42L265.65 98.71C265.63 99 265.61 99.28 265.58 99.56L265.18 102.68H264.9C264.6 104.03 264.25 105.34 263.85 106.62H327.55C331.32 66.17 310.88 45.84 278.13 45.84V45.85Z" fill="white"/>
  </g>
</svg>
