<svg preserveAspectRatio="none" width="100%" height="100%" overflow="visible" style="display: block;" viewBox="0 0 48 48" fill="none" xmlns="http://www.w3.org/2000/svg">
<g id="sensors">
<mask id="mask0_0_62" style="mask-type:alpha" maskUnits="userSpaceOnUse" x="0" y="0" width="48" height="48">
<rect id="Bounding box" width="48" height="48" fill="var(--fill-0, #D9D9D9)"/>
</mask>
<g mask="url(#mask0_0_62)">
<path id="sensors_2" d="M9.85001 38.1501C8.05001 36.3167 6.62501 34.1917 5.57501 31.7751C4.52501 29.3584 4.00001 26.7667 4.00001 24C4.00001 21.2 4.52501 18.5917 5.57501 16.175C6.62501 13.7584 8.05001 11.65 9.85001 9.85005L12.7 12.7C11.2333 14.1667 10.0833 15.8667 9.25001 17.8C8.41668 19.7334 8.00001 21.8 8.00001 24C8.00001 26.2334 8.41668 28.3167 9.25001 30.25C10.0833 32.1834 11.2333 33.8667 12.7 35.3L9.85001 38.1501ZM15.5 32.5C14.4333 31.4 13.5833 30.125 12.95 28.675C12.3167 27.225 12 25.6667 12 24C12 22.3 12.3167 20.725 12.95 19.275C13.5833 17.825 14.4333 16.5667 15.5 15.5L18.35 18.35C17.6167 19.0834 17.0417 19.9334 16.625 20.9C16.2083 21.8667 16 22.9 16 24C16 25.1 16.2083 26.1334 16.625 27.1C17.0417 28.0667 17.6167 28.9167 18.35 29.6501L15.5 32.5ZM21.175 26.825C20.3917 26.0417 20 25.1 20 24C20 22.9 20.3917 21.9584 21.175 21.175C21.9583 20.3917 22.9 20 24 20C25.1 20 26.0417 20.3917 26.825 21.175C27.6083 21.9584 28 22.9 28 24C28 25.1 27.6083 26.0417 26.825 26.825C26.0417 27.6084 25.1 28 24 28C22.9 28 21.9583 27.6084 21.175 26.825ZM32.5 32.5L29.65 29.6501C30.3833 28.9167 30.9583 28.0667 31.375 27.1C31.7917 26.1334 32 25.1 32 24C32 22.9 31.7917 21.8667 31.375 20.9C30.9583 19.9334 30.3833 19.0834 29.65 18.35L32.5 15.5C33.5667 16.5667 34.4167 17.825 35.05 19.275C35.6833 20.725 36 22.3 36 24C36 25.6667 35.6833 27.225 35.05 28.675C34.4167 30.125 33.5667 31.4 32.5 32.5ZM38.15 38.1501L35.3 35.3C36.7667 33.8334 37.9167 32.1334 38.75 30.2C39.5833 28.2667 40 26.2 40 24C40 21.7667 39.5833 19.6834 38.75 17.75C37.9167 15.8167 36.7667 14.1334 35.3 12.7L38.15 9.85005C39.95 11.65 41.375 13.7584 42.425 16.175C43.475 18.5917 44 21.2 44 24C44 26.7667 43.475 29.3584 42.425 31.7751C41.375 34.1917 39.95 36.3167 38.15 38.1501Z" fill="var(--fill-0, white)"/>
</g>
</g>
</svg>
