<svg preserveAspectRatio="none" width="100%" height="100%" overflow="visible" style="display: block;" viewBox="0 0 88 88" fill="none" xmlns="http://www.w3.org/2000/svg">
<g id="coffee_maker">
<mask id="mask0_0_64" style="mask-type:alpha" maskUnits="userSpaceOnUse" x="0" y="0" width="88" height="88">
<rect id="Bounding box" width="88" height="88" fill="var(--fill-0, #D9D9D9)"/>
</mask>
<g mask="url(#mask0_0_64)">
<path id="coffee_maker_2" d="M25.9278 73.2778C24.2976 73.2778 22.9021 72.6973 21.7413 71.5365C20.5804 70.3756 20 68.9801 20 67.35V19.9278C20 18.2976 20.5804 16.9021 21.7413 15.7413C22.9021 14.5804 24.2976 14 25.9278 14H67.4222V19.9278H61.4944V25.8556C61.4944 26.6953 61.2104 27.3992 60.6423 27.9673C60.0742 28.5354 59.3703 28.8194 58.5306 28.8194H34.8194C33.9797 28.8194 33.2758 28.5354 32.7077 27.9673C32.1396 27.3992 31.8556 26.6953 31.8556 25.8556V19.9278H25.9278V67.35H37.9315C36.0544 66.0162 34.5725 64.3244 33.4857 62.2743C32.3989 60.2243 31.8556 57.9643 31.8556 55.4944V40.675H61.4944V55.4944C61.4944 57.9643 60.9511 60.2243 59.8643 62.2743C58.7775 64.3244 57.2956 66.0162 55.4185 67.35H67.4222V73.2778H25.9278ZM46.675 64.3861C49.1449 64.3861 51.2443 63.5216 52.9733 61.7927C54.7022 60.0638 55.5667 57.9643 55.5667 55.4944V46.6028H37.7833V55.4944C37.7833 57.9643 38.6478 60.0638 40.3767 61.7927C42.1057 63.5216 44.2051 64.3861 46.675 64.3861ZM48.7868 36.859C49.3549 36.2909 49.6389 35.587 49.6389 34.7472C49.6389 33.9075 49.3549 33.2035 48.7868 32.6354C48.2187 32.0674 47.5148 31.7833 46.675 31.7833C45.8352 31.7833 45.1313 32.0674 44.5632 32.6354C43.9952 33.2035 43.7111 33.9075 43.7111 34.7472C43.7111 35.587 43.9952 36.2909 44.5632 36.859C45.1313 37.4271 45.8352 37.7111 46.675 37.7111C47.5148 37.7111 48.2187 37.4271 48.7868 36.859Z" fill="var(--fill-0, white)"/>
</g>
</g>
</svg>
