<svg preserveAspectRatio="none" width="100%" height="100%" overflow="visible" style="display: block;" viewBox="0 0 208 208" fill="none" xmlns="http://www.w3.org/2000/svg">
<g id="task_alt">
<mask id="mask0_0_27" style="mask-type:alpha" maskUnits="userSpaceOnUse" x="0" y="0" width="208" height="208">
<rect id="Bounding box" width="208" height="208" fill="var(--fill-0, #D9D9D9)"/>
</mask>
<g mask="url(#mask0_0_27)">
<path id="task_alt_2" d="M104.028 182C93.2425 182 83.1018 179.953 73.606 175.86C64.1117 171.766 55.8523 166.211 48.828 159.194C41.8037 152.177 36.2433 143.924 32.1468 134.437C28.0489 124.952 26 114.815 26 104.028C26 93.2425 28.0475 83.1018 32.1425 73.606C36.2375 64.1117 41.795 55.8523 48.815 48.828C55.835 41.8037 64.09 36.2433 73.58 32.1468C83.07 28.0489 93.21 26 104 26C112.87 26 121.263 27.3722 129.177 30.1167C137.092 32.8611 144.311 36.6889 150.833 41.6L144.599 48.0502C138.889 43.8049 132.607 40.5131 125.753 38.1745C118.901 35.8359 111.65 34.6667 104 34.6667C84.7889 34.6667 68.4306 41.4194 54.925 54.925C41.4194 68.4306 34.6667 84.7889 34.6667 104C34.6667 123.211 41.4194 139.569 54.925 153.075C68.4306 166.581 84.7889 173.333 104 173.333C123.211 173.333 139.569 166.581 153.075 153.075C166.581 139.569 173.333 123.211 173.333 104C173.333 100.512 173.078 97.0898 172.566 93.7343C172.055 90.3803 171.289 87.1188 170.268 83.9497L177.184 76.8668C178.772 81.1554 179.972 85.5559 180.782 90.0683C181.594 94.5793 182 99.2232 182 104C182 114.79 179.953 124.93 175.86 134.42C171.766 143.91 166.211 152.165 159.194 159.185C152.177 166.205 143.924 171.763 134.437 175.858C124.952 179.953 114.815 182 104.028 182ZM91.533 137.867L60.6992 107.033L66.833 100.9L91.533 125.6L175.866 41.2165L182 47.3503L91.533 137.867Z" fill="var(--fill-0, #16A34A)"/>
</g>
</g>
</svg>
