<svg width="311" height="167" viewBox="0 0 311 167" fill="none" xmlns="http://www.w3.org/2000/svg">
<g clip-path="url(#clip0_1_64)">
<path d="M83.4614 166.457C129.256 166.457 166.38 129.316 166.38 83.5C166.38 37.6842 129.256 0.543213 83.4614 0.543213C37.6668 0.543213 0.542999 37.6842 0.542999 83.5C0.542999 129.316 37.6668 166.457 83.4614 166.457Z" stroke="#153C6B" stroke-width="3" stroke-miterlimit="10"/>
<path d="M228.082 166.442C273.876 166.442 311 129.301 311 83.4855C311 37.6698 273.876 0.528748 228.082 0.528748C182.287 0.528748 145.163 37.6698 145.163 83.4855C145.163 129.301 182.287 166.442 228.082 166.442Z" fill="#153C6B"/>
<path d="M89.4343 59.2135C92.2868 59.2135 95.1429 59.2243 97.9954 59.1917C98.647 59.1845 98.7194 59.7132 98.9728 60.0573C100.312 61.8898 101.623 63.7441 102.948 65.5875C103.016 65.6817 103.11 65.7577 103.215 65.87C104.707 63.7839 106.184 61.716 107.661 59.648C107.834 59.4054 107.994 59.1953 108.356 59.1953C111.248 59.2098 114.14 59.2026 117.152 59.2026C116.609 59.9849 116.12 60.7092 115.61 61.419C114.43 63.056 113.232 64.6821 112.059 66.3227C110.951 67.8727 109.854 69.4337 108.776 71.0018C108.493 71.4147 108.276 71.871 108.041 72.3165C107.95 72.4903 108.015 72.6497 108.131 72.8054C109.554 74.7719 110.973 76.7457 112.392 78.7159C113.967 80.9033 115.541 83.0908 117.17 85.3579C116.396 85.3579 115.711 85.3579 115.027 85.3579C112.808 85.3579 110.589 85.3507 108.367 85.3652C108.077 85.3652 107.918 85.2746 107.758 85.0464C106.586 83.3986 105.38 81.7761 104.225 80.1174C103.9 79.6502 103.769 79.7299 103.523 80.1573C102.303 82.2795 101.058 84.3837 99.8344 86.5023C97.7637 90.0805 95.704 93.6659 93.637 97.2477C93.2859 97.8525 93.1628 97.2911 93.0433 97.0919C92.2397 95.7411 91.4578 94.3757 90.665 93.0176C89.3438 90.7505 88.0695 88.4544 86.7193 86.2054C85.4234 84.0469 84.2396 81.8196 82.9871 79.6357C81.7781 77.5316 80.5401 75.4492 79.3238 73.3486C78.2161 71.4364 77.1228 69.517 76.026 67.6084C76.1201 67.4237 76.2794 67.4961 76.3989 67.4961C78.9147 67.4925 81.4342 67.4961 83.9501 67.4888C84.3627 67.4888 84.6197 67.5721 84.8659 68.0104C86.5347 71.0163 88.3302 73.9462 89.9917 76.9558C90.618 78.0893 91.2985 79.2012 91.9682 80.313C92.3592 80.9649 92.4243 80.9975 92.8225 80.3746C93.6262 79.1287 94.5456 77.9698 95.3963 76.7566C96.3701 75.3731 97.3402 73.9933 98.3429 72.6315C98.5529 72.3454 98.5348 72.1861 98.3429 71.9181C96.4606 69.2997 94.5963 66.6704 92.7139 64.0483C91.6279 62.5345 90.5202 61.0315 89.4234 59.5249C89.4306 59.4199 89.4343 59.3112 89.4415 59.2062L89.4343 59.2135Z" fill="#153C6B"/>
<path d="M70.444 35.2891C60.1924 41.6378 53.6294 50.5723 51.6891 62.5091C49.8212 74.015 52.6375 84.4742 60.1562 93.3907C68.225 102.959 78.6649 107.729 91.2478 107.218C103.776 106.711 113.648 101.032 121.206 91.1272C119.136 95.2775 116.33 98.8665 112.953 102.014C108.247 106.396 102.774 109.612 96.5981 111.198C82.3355 114.867 69.4739 111.919 58.4729 101.963C51.9498 96.0598 47.7723 88.6681 46.2085 80.0088C44.0909 68.2711 46.5741 57.5004 53.814 47.9357C58.8892 41.2358 65.9119 36.8645 70.444 35.2927V35.2891Z" fill="#153C6B"/>
<path d="M72.8441 97.4324C66.8965 94.4409 62.3535 89.9791 59.0485 84.3004C55.7181 78.5819 54.2339 72.3092 54.672 65.7324C55.3597 55.3926 59.9462 47.0303 68.1309 40.6599C72.5943 37.1868 77.7274 35.2637 83.2188 34.2315C84.8912 33.9165 86.6035 33.8839 88.3157 33.9092C90.0931 33.9346 91.8451 34.1555 93.6044 34.3257C95.3456 34.4923 96.9673 35.0935 98.618 35.5824C100.338 36.0894 101.981 36.7956 103.585 37.5888C105.221 38.4 106.759 39.3634 108.229 40.439C109.702 41.5146 111.078 42.7134 112.356 44.0171C113.619 45.3101 114.763 46.6971 115.824 48.1639C116.877 49.6198 117.724 51.1879 118.495 52.7996C108.859 38.6608 90.9944 35.0935 77.5065 41.7609C66.6214 47.1426 60.3516 56.1423 59.3344 68.2277C58.3172 80.3202 63.2657 90.0334 72.8368 97.4396L72.8441 97.4324Z" fill="#153C6B"/>
<path d="M81.807 93.5428C71.3201 88.353 65.1698 77.5823 66.2123 65.899C66.6431 61.0641 68.3517 56.6167 71.1753 52.6402C76.6957 44.861 86.7121 39.9573 96.2868 40.8953C96.9529 40.9605 97.619 41.0583 98.2742 41.1887C104.62 42.4381 110.158 45.2919 114.495 50.2246C116.088 52.0354 117.406 54.0309 118.481 56.1749C112.544 48.0045 104.468 43.9737 94.466 44.7378C83.7003 45.5636 76.026 51.3219 71.7581 61.256C69.2821 67.0217 69.13 73.048 70.9907 79.0744C72.8549 85.1152 76.5147 89.8342 81.807 93.5391V93.5428Z" fill="#153C6B"/>
<path d="M80.8876 121.407C81.0215 121.429 81.1555 121.455 81.2894 121.487C82.6795 121.806 83.2804 122.776 83.4469 124.084C83.5989 125.279 83.5808 126.467 83.1139 127.611C82.7301 128.546 81.8831 128.817 80.9962 129.096C81.6333 129.886 82.2559 130.653 82.8786 131.425C83.1826 131.805 83.4903 132.185 83.7835 132.573C83.9899 132.841 83.8885 133.036 83.5736 133.047C82.8424 133.069 82.1075 133.058 81.3763 133.047C80.9419 133.04 80.8333 132.616 80.6306 132.359C79.9536 131.505 79.3093 130.624 78.6794 129.734C78.4043 129.346 78.0713 129.281 77.655 129.4L77.6333 129.371L77.6115 129.4C76.1672 129.386 74.7264 129.379 73.2821 129.353C72.9889 129.35 72.9744 129.502 72.9744 129.723C72.9816 130.614 72.9599 131.505 72.9816 132.395C72.9925 132.866 72.8549 133.102 72.3409 133.062C71.8884 133.029 71.4287 133.044 70.9762 133.062C70.5852 133.076 70.4151 132.946 70.4151 132.519C70.4296 129.013 70.4296 125.507 70.4151 122.001C70.4151 121.491 70.6033 121.302 71.1174 121.302C72.6848 121.31 74.2522 121.313 75.8197 121.313C76.5871 121.313 77.3545 121.313 78.1256 121.313C78.5238 121.313 78.922 121.321 79.3202 121.321C79.8487 121.321 80.3699 121.328 80.8876 121.411V121.407ZM76.4966 127.274C77.5066 127.274 78.5165 127.296 79.5229 127.267C80.6269 127.235 80.7862 126.811 80.8948 125.913C80.931 125.619 80.9238 125.319 80.8948 125.022C80.8116 124.124 80.5871 123.671 79.5301 123.653C77.4921 123.617 75.4541 123.646 73.4197 123.631C73.0866 123.631 72.9672 123.736 72.9708 124.073C72.9853 125.004 72.9925 125.934 72.9708 126.862C72.9599 127.217 73.0975 127.285 73.416 127.282C74.4441 127.264 75.4722 127.274 76.5002 127.274H76.4966Z" fill="#153C6B"/>
<path d="M60.2032 121.245C60.8946 121.23 61.6005 121.284 62.263 121.292C63.034 121.299 63.8051 121.306 64.5725 121.31C65.6802 121.317 66.7915 121.324 67.8992 121.306C68.3336 121.299 68.511 121.451 68.5038 121.889C68.4676 123.979 68.7825 123.642 66.8277 123.657C64.8657 123.671 62.9037 123.657 60.9417 123.664C60.6123 123.664 60.2901 123.689 59.9571 123.78C58.7734 124.091 58.5489 124.377 58.5236 125.59C58.5163 126.032 58.672 126.097 59.063 126.097C61.8974 126.083 64.7282 126.09 67.5626 126.09C68.3843 126.09 68.3916 126.09 68.3843 126.916C68.3735 128.27 68.5653 128.147 67.1427 128.147C64.5073 128.147 61.872 128.151 59.2367 128.147C58.8313 128.147 58.5272 128.082 58.5308 128.72C58.5308 129.487 58.7082 130.078 59.3489 130.509C59.5661 130.653 59.7978 130.711 60.0621 130.708C62.6358 130.701 65.2132 130.715 67.787 130.693C68.3409 130.69 68.5146 130.874 68.5038 131.414C68.4603 133.37 68.7391 133.04 66.8784 133.055C64.5218 133.073 62.1616 133.138 59.8087 133.047C57.5209 132.957 56.1489 131.82 56.0729 129.256C56.0331 127.868 56.062 126.481 56.0729 125.094C56.0874 123.515 56.7209 122.277 58.2014 121.625C58.824 121.35 59.5046 121.263 60.196 121.248L60.2032 121.245Z" fill="#153C6B"/>
<path d="M103.614 121.273C103.95 121.259 104.283 121.263 104.605 121.273C104.681 121.273 104.757 121.277 104.833 121.281C105.355 121.284 105.88 121.292 106.401 121.295C107.027 121.302 107.653 121.306 108.283 121.31C109.293 121.317 110.303 121.321 111.313 121.31C111.69 121.306 111.86 121.444 111.853 121.828C111.805 124.077 112.182 123.631 110.137 123.657C108.095 123.685 106.057 123.675 104.015 123.657C103.617 123.657 103.241 123.733 102.868 123.823C102.205 123.99 101.601 125.449 101.956 125.989C102.075 126.17 102.285 126.083 102.452 126.083C105.304 126.087 108.157 126.097 111.009 126.076C111.538 126.072 111.737 126.188 111.715 126.767C111.668 128.144 111.697 128.147 110.343 128.147C107.827 128.147 105.311 128.147 102.795 128.147C102.228 128.147 101.945 128.424 101.945 128.977C101.945 129.571 102.104 130.07 102.629 130.429C102.861 130.588 103.071 130.693 103.357 130.693C105.952 130.69 108.544 130.711 111.139 130.69C111.69 130.686 111.863 130.856 111.853 131.403C111.816 133.337 112.03 133.044 110.227 133.055C107.853 133.069 105.471 133.152 103.1 133.047C101.08 132.96 99.6027 131.936 99.4651 129.567C99.3674 127.865 99.3131 126.148 99.4832 124.461C99.581 123.483 100.015 122.566 100.852 122.016C101.652 121.487 102.64 121.313 103.606 121.273H103.614Z" fill="#153C6B"/>
<path d="M124.331 132.997C122.991 131.544 121.652 130.096 120.247 128.709C120.084 128.549 119.987 128.524 119.82 128.698C118.658 129.926 117.471 131.128 116.338 132.377C115.939 132.816 115.574 133.134 114.94 133.065C114.452 133.011 113.952 133.055 113.456 133.055C113.261 133.055 113.018 133.094 112.924 132.892C112.837 132.696 113.08 132.602 113.185 132.472C114.104 131.352 115.219 130.425 116.178 129.346C116.819 128.622 117.478 127.912 118.195 127.264C118.499 126.985 118.524 126.829 118.22 126.525C116.739 125.044 115.281 123.537 113.815 122.041C113.655 121.878 113.391 121.737 113.503 121.462C113.601 121.223 113.959 121.31 114.158 121.306C114.542 121.306 114.922 121.241 115.306 121.241C115.657 121.252 116.005 121.342 116.32 121.502C116.964 121.828 117.449 122.4 117.883 122.961C117.894 122.976 117.909 122.99 117.92 123.008C118.546 123.816 119.393 124.432 120.019 125.257C120.211 125.507 120.41 125.286 120.555 125.127C121.688 123.856 123.031 122.791 124.102 121.462C124.236 121.299 124.414 121.321 124.584 121.317C125.257 121.31 125.931 121.31 126.604 121.317C126.749 121.317 126.94 121.245 127.027 121.433C127.114 121.625 126.991 121.766 126.857 121.896C125.373 123.381 123.9 124.873 122.405 126.347C121.818 126.927 121.804 126.905 122.343 127.47C123.878 129.078 125.406 130.693 126.948 132.298C127.132 132.49 127.248 132.692 127.176 132.928C127.096 133.185 126.836 133.047 126.662 133.051C125.909 133.062 125.156 133.051 124.407 133.051C124.425 132.975 124.374 132.997 124.338 133L124.331 132.997Z" fill="#153C6B"/>
<path d="M46.538 133C45.9588 132.921 45.6945 132.45 45.4556 132.022C44.2393 129.86 43.0592 127.676 41.8538 125.507C41.2782 124.471 40.6845 123.443 40.0981 122.414C39.9931 122.23 39.8555 122.059 39.7868 121.864C39.6673 121.531 39.6999 121.277 40.1669 121.306C40.5433 121.328 40.927 121.364 41.2927 121.299C42.1433 121.15 42.5126 121.585 42.8818 122.291C44.2936 124.989 45.7742 127.651 47.2366 130.32C47.461 130.73 47.7687 130.682 48.0294 130.194C48.5289 129.256 49.0031 128.303 49.5063 127.365C50.4222 125.659 51.4249 123.993 52.243 122.24C52.6195 121.433 53.0901 121.219 53.872 121.299C54.2448 121.339 54.6249 121.317 55.0014 121.299C55.4503 121.281 55.577 121.404 55.3417 121.838C54.7154 122.979 54.1254 124.138 53.5027 125.283C52.4167 127.274 51.3054 129.256 50.2267 131.251C49.9262 131.805 49.6077 132.338 49.166 132.787C48.9706 132.986 48.7425 133.055 48.4565 133.047C47.8448 133.026 47.2294 133.04 46.6176 133.04L46.5959 132.989H46.538V133Z" fill="#153C6B"/>
<path d="M91.494 121.31C93.5755 121.31 95.6533 121.321 97.7348 121.302C98.2379 121.299 98.4769 121.436 98.4334 121.972C98.4045 122.345 98.4153 122.726 98.4334 123.102C98.4515 123.559 98.2524 123.74 97.7963 123.736C96.3302 123.722 94.8642 123.754 93.3981 123.722C92.8913 123.711 92.7863 123.874 92.7899 124.355C92.8153 127.01 92.7899 129.668 92.8117 132.323C92.8153 132.895 92.6451 133.127 92.0659 133.069C91.675 133.029 91.2732 133.036 90.8786 133.069C90.3429 133.113 90.1981 132.874 90.2017 132.37C90.2198 129.676 90.2017 126.978 90.2198 124.283C90.2234 123.838 90.1148 123.714 89.6659 123.725C88.1998 123.758 86.7338 123.725 85.2677 123.743C84.7573 123.751 84.5292 123.591 84.5799 123.059C84.6125 122.704 84.6125 122.345 84.5799 121.991C84.5365 121.473 84.7283 121.295 85.2568 121.302C87.3383 121.328 89.4161 121.313 91.4976 121.313L91.494 121.31Z" fill="#153C6B"/>
<path d="M77.6043 129.4L77.626 129.371L77.6477 129.4C77.6405 129.429 77.6333 129.458 77.626 129.487C77.6188 129.458 77.6115 129.429 77.6043 129.4Z" fill="#153C6B"/>
<path d="M124.33 132.997C124.37 132.993 124.417 132.971 124.399 133.047C124.327 133.094 124.323 133.055 124.33 132.997Z" fill="#153C6B"/>
<path d="M255.655 92.7388C260.23 90.6382 262.21 86.3611 262.855 82.4824H262.884C262.902 82.3447 262.902 82.1926 262.916 82.055C263.043 81.1532 263.126 80.2732 263.126 79.4619C263.126 78.332 263.01 77.2419 262.822 76.1735C261.758 69.383 257.457 64.5771 251.666 62.5381C249.635 61.6581 247.416 61.4154 245.233 61.4154H245.2C245.2 61.4154 245.175 61.4154 245.168 61.4154C244.73 61.4154 244.292 61.448 243.85 61.4661V61.5385C234.594 62.1687 227.278 68.8759 227.278 79.4583C227.278 90.573 234.174 97.3563 245.24 97.3563C249.624 97.3563 254.221 99.5945 254.221 104.502C254.221 109.409 250.272 112.151 245.24 112.151C240.208 112.151 235.973 109.119 235.973 104.502H227.278C227.278 114.099 234.967 120.379 245.24 120.379C255.514 120.379 262.985 114.316 262.985 104.502C262.985 99.953 261.548 95.694 255.658 92.7388M245.237 89.3453C240.136 89.3453 235.969 85.6621 235.969 79.4583C235.969 73.2545 240.118 69.4482 245.2 69.43C246.42 69.43 247.586 69.6654 248.657 70.0892C248.69 70.1037 248.733 70.1109 248.77 70.1254C249.001 70.2196 249.204 70.3608 249.421 70.4731C252.371 72.005 254.435 75.1667 254.435 79.4583C254.435 80.5412 254.265 81.5154 254.026 82.4389C252.896 86.7667 249.381 89.3453 245.237 89.3453Z" fill="white"/>
<path d="M235.969 103.129H227.274V103.933H235.969V103.129Z" fill="white"/>
<path d="M235.969 101.88H227.274V102.684H235.969V101.88Z" fill="white"/>
<path d="M235.969 100.634H227.274V101.438H235.969V100.634Z" fill="white"/>
<path d="M235.969 99.3845H227.274V100.188H235.969V99.3845Z" fill="white"/>
<path d="M279.358 89.1643L279.919 88.592L285.512 94.1657L284.951 94.7379L279.358 89.1643Z" fill="white"/>
<path d="M280.23 88.2805L280.795 87.7083L286.388 93.2784L285.823 93.8506L280.23 88.2805Z" fill="white"/>
<path d="M281.107 87.3896L281.671 86.821L287.264 92.3911L286.699 92.9633L281.107 87.3896Z" fill="white"/>
<path d="M281.983 86.5023L282.547 85.9301L288.14 91.5038L287.575 92.076L281.983 86.5023Z" fill="white"/>
<path d="M235.969 46.5885H227.274V47.3925H235.969V46.5885Z" fill="white"/>
<path d="M235.969 47.8416H227.274V48.6456H235.969V47.8416Z" fill="white"/>
<path d="M235.969 49.0874H227.274V49.8914H235.969V49.0874Z" fill="white"/>
<path d="M235.969 50.3369H227.274V51.1409H235.969V50.3369Z" fill="white"/>
<path d="M236.038 51.6334H227.274V52.1079H236.038V51.6334Z" fill="white"/>
<path d="M197.88 88.6789C197.464 89.1063 197.004 89.5192 196.519 89.9103C196.233 90.1493 195.944 90.3811 195.607 90.5912C195.43 90.7143 195.238 90.8266 195.057 90.9425C192.881 92.1086 190 92.7786 187.64 92.7786C181.46 92.7786 177.652 89.6025 177.077 85.2022H204.74C206.105 70.5527 198.706 63.19 186.851 63.19C174.995 63.19 168.023 70.9837 168.023 81.8087C168.023 93.2132 175.281 100.75 187.495 100.79C191.194 100.8 195.187 99.8589 198.557 98.0481C198.612 98.0481 199.861 97.2803 200.223 97.034C201.001 96.4872 201.732 95.8968 202.434 95.2667C200.476 93.4921 198.93 91.2684 197.884 88.6789H197.88ZM187.136 70.9837C192.168 70.9837 195.759 73.2943 196.335 77.9119H177.221C178.514 73.2943 182.398 70.9837 187.136 70.9837Z" fill="white"/>
<path d="M227.274 98.8267H236.038V96.8094C229.685 93.9375 225.986 87.8242 225.986 79.4583C225.986 71.7297 229.877 65.4426 236.038 62.3244V51.6298H227.274V67.2896C225.189 63.6065 219.372 61.5892 215.636 61.5892C209.605 61.5892 204.494 63.7622 201.265 67.9886C203.231 70.2123 204.566 73.0552 205.243 76.4197C206.684 72.3997 210.311 70.0384 214.626 70.0384C220.158 70.0384 224.9 74.225 224.9 80.4289C224.9 86.6327 220.158 90.8953 214.626 90.8953C210.959 90.8953 207.799 89.0628 206.043 86.0641H198.347C200.527 94.1729 207.318 98.8267 215.853 98.8267C220.161 98.8267 224.545 97.3817 227.274 93.1263V98.8267Z" fill="white"/>
<path d="M250.29 86.2416C251.463 85.2276 252.335 83.8224 252.78 82.113C253.03 81.1387 253.146 80.2949 253.146 79.4583C253.146 77.2564 252.538 75.3224 251.427 73.8303C250.428 76.2133 249.877 78.897 249.877 81.8124C249.877 83.366 250.022 84.84 250.286 86.2416H250.29Z" fill="white"/>
<path d="M269.497 92.7786C265.841 92.7786 263.021 91.6595 261.204 89.8415C260.364 90.9678 259.376 91.9457 258.243 92.7388C261.577 94.9516 263.097 97.6388 263.767 100.178C265.494 100.569 267.351 100.793 269.353 100.793C274.739 100.793 280.846 98.9136 284.585 95.0204L278.982 89.4648C276.969 91.5581 272.73 92.7822 269.497 92.7822V92.7786Z" fill="white"/>
<path d="M268.705 63.1936C264.951 63.1936 261.653 64.0375 258.898 65.5332C260.82 67.4309 262.286 69.7632 263.213 72.4324C264.853 71.4726 266.829 70.9873 268.991 70.9873C274.022 70.9873 277.613 73.2979 278.189 77.9155H264.346C264.39 78.437 264.419 78.9549 264.419 79.4583C264.419 80.2623 264.346 81.1713 264.194 82.2325L264.187 82.3375C264.18 82.4425 264.172 82.5439 264.162 82.6453L264.017 83.7753H263.915C263.807 84.2642 263.68 84.7386 263.535 85.2022H286.594C287.959 70.5527 280.56 63.19 268.705 63.19V63.1936Z" fill="white"/>
</g>
<defs>
<clipPath id="clip0_1_64">
<rect width="311" height="167" fill="white"/>
</clipPath>
</defs>
</svg>
